<?xml version="1.0" standalone="no"?>
<!DOCTYPE svg PUBLIC "-//W3C//DTD SVG 20010904//EN"
 "http://www.w3.org/TR/2001/REC-SVG-20010904/DTD/svg10.dtd">
<svg version="1.0" xmlns="http://www.w3.org/2000/svg"
 width="500.000000pt" height="500.000000pt" viewBox="0 0 500.000000 500.000000"
 preserveAspectRatio="xMidYMid meet">

<g transform="translate(0.000000,500.000000) scale(0.100000,-0.100000)"
fill="white" stroke="none">
<path d="M635 4994 c-223 -33 -451 -199 -555 -404 -58 -115 -75 -192 -75 -340
0 -148 17 -225 75 -340 64 -126 199 -264 320 -325 194 -98 422 -111 621 -34
208 80 373 256 446 474 24 72 27 94 27 225 0 131 -3 153 -27 225 -30 89 -86
191 -144 260 -84 101 -234 198 -372 241 -46 14 -258 26 -316 18z"/>
<path d="M2380 4994 c-262 -52 -459 -198 -565 -419 -121 -253 -91 -553 76
-774 97 -128 214 -212 374 -267 72 -25 94 -28 215 -28 75 0 155 6 180 12 272
75 476 273 552 538 29 101 31 275 5 374 -70 265 -277 474 -542 547 -52 14
-251 25 -295 17z m322 -57 c121 -39 203 -90 298 -186 94 -95 142 -175 182
-301 19 -63 23 -95 22 -205 -1 -111 -4 -141 -26 -207 -40 -122 -91 -204 -188
-299 -71 -71 -102 -94 -181 -132 -290 -142 -614 -86 -835 145 -151 157 -215
335 -201 553 12 186 87 338 233 474 89 83 218 152 329 176 103 22 268 14 367
-18z"/>
<path d="M4135 4994 c-11 -2 -47 -10 -80 -16 -128 -24 -307 -133 -398 -243
-58 -69 -114 -171 -144 -260 -24 -72 -27 -94 -27 -225 0 -131 3 -153 27 -225
66 -199 209 -363 391 -449 114 -54 185 -70 321 -70 147 -1 200 12 335 76 92
44 115 61 195 142 155 155 216 304 216 526 0 222 -61 371 -216 526 -76 76
-105 98 -185 138 -52 26 -120 53 -150 61 -56 15 -248 28 -285 19z m307 -57
c120 -38 203 -90 298 -186 66 -67 94 -105 127 -171 91 -182 105 -362 43 -561
-30 -98 -87 -186 -180 -279 -150 -151 -330 -219 -546 -207 -324 18 -592 250
-661 570 -20 98 -13 267 17 362 80 256 305 449 580 499 14 3 75 3 135 1 83 -2
129 -9 187 -28z"/>
<path d="M635 3244 c-223 -33 -451 -199 -555 -404 -58 -115 -75 -192 -75 -340
0 -148 17 -225 75 -340 64 -126 199 -264 320 -325 194 -98 422 -111 621 -34
208 80 373 256 446 474 24 72 27 94 27 225 0 131 -3 153 -27 225 -30 89 -86
191 -144 260 -84 101 -234 198 -372 241 -46 14 -258 26 -316 18z"/>
<path d="M2405 3244 c-11 -2 -47 -9 -80 -16 -33 -6 -100 -31 -150 -54 -346
-168 -507 -561 -380 -927 62 -177 201 -333 370 -416 122 -60 190 -75 335 -75
145 0 213 15 335 75 87 42 170 109 241 191 209 244 230 619 51 889 -42 64
-146 169 -208 212 -57 38 -155 83 -227 102 -57 15 -249 28 -287 19z m307 -57
c121 -38 203 -90 298 -186 94 -95 142 -175 182 -301 19 -63 23 -95 22 -205 -1
-148 -21 -229 -89 -352 -55 -99 -187 -227 -290 -280 -118 -61 -187 -77 -335
-77 -148 0 -217 16 -335 77 -103 53 -235 181 -290 280 -67 121 -88 204 -89
347 -1 149 10 202 71 329 38 79 59 108 131 181 116 117 238 183 387 210 86 16
251 5 337 -23z"/>
<path d="M4135 3244 c-11 -2 -47 -10 -80 -16 -128 -24 -307 -133 -398 -243
-58 -69 -114 -171 -144 -260 -24 -72 -27 -94 -27 -225 0 -131 3 -153 27 -225
66 -199 209 -363 391 -449 114 -54 185 -70 321 -70 147 -1 200 12 335 76 92
44 115 61 195 142 155 155 216 304 216 526 0 222 -61 371 -216 526 -76 76
-105 98 -185 138 -52 26 -120 53 -150 61 -56 15 -248 28 -285 19z m307 -57
c120 -38 203 -90 298 -186 66 -67 94 -105 127 -171 91 -182 105 -362 43 -561
-30 -98 -87 -186 -180 -279 -150 -151 -330 -219 -546 -207 -324 18 -592 250
-661 570 -20 98 -13 267 17 362 80 256 305 449 580 499 14 3 75 3 135 1 83 -2
129 -9 187 -28z"/>
<path d="M635 1494 c-223 -33 -451 -199 -555 -404 -58 -115 -75 -192 -75 -340
0 -148 17 -225 75 -340 64 -126 199 -264 320 -325 194 -98 422 -111 621 -34
208 80 373 256 446 474 24 72 27 94 27 225 0 131 -3 153 -27 225 -30 89 -86
191 -144 260 -84 101 -234 198 -372 241 -46 14 -258 26 -316 18z"/>
<path d="M2385 1494 c-223 -33 -451 -199 -555 -404 -58 -115 -75 -192 -75
-340 0 -148 17 -225 75 -340 64 -126 199 -264 320 -325 194 -98 422 -111 621
-34 208 80 373 256 446 474 24 72 27 94 27 225 0 131 -3 153 -27 225 -30 89
-86 191 -144 260 -84 101 -234 198 -372 241 -46 14 -258 26 -316 18z"/>
<path d="M4155 1494 c-11 -2 -47 -9 -80 -16 -33 -6 -100 -31 -150 -54 -346
-168 -507 -561 -380 -927 62 -177 201 -333 370 -416 122 -60 190 -75 335 -75
145 0 213 15 335 75 87 42 170 109 241 191 209 244 230 619 51 889 -42 64
-146 169 -208 212 -57 38 -155 83 -227 102 -57 15 -249 28 -287 19z m307 -57
c121 -38 203 -90 298 -186 94 -95 142 -175 182 -301 19 -63 23 -95 22 -205 -1
-148 -21 -229 -89 -352 -55 -99 -187 -227 -290 -280 -118 -61 -187 -77 -335
-77 -148 0 -217 16 -335 77 -103 53 -235 181 -290 280 -67 121 -88 204 -89
347 -1 149 10 202 71 329 38 79 59 108 131 181 116 117 238 183 387 210 86 16
251 5 337 -23z"/>
</g>
</svg>
